# xmcd CD database file
#
# Track frame offsets:
#	150
#	6955
#	51788
#	112883
#	124131
#
# Disc length: 2012 seconds
#
# Revision: 1
# Processed by: cddbd v1.5.2PL0 Copyright (c) Steve Scherf et al.
# Submitted via: CDex 1.51
#
DISCID=3807da05
DTITLE=Acervo qualidade de vida - Meditação da sabedoria interior
DYEAR=1900
DGENRE=New Age
TTITLE0=Abertura
TTITLE1=Harmonizando seu interior com o meio ambiente
TTITLE2=Exercício para equilibrar os chakras
TTITLE3=Reflexão sobre nosso papel no mundo
TTITLE4=Relaxamento físico, mental e emocional
EXTD=
EXTT0=
EXTT1=
EXTT2=
EXTT3=
EXTT4=
PLAYORDER=
